<mxfile host="Electron" agent="Mozilla/5.0 (Windows NT 10.0; Win64; x64) AppleWebKit/537.36 (KHTML, like Gecko) draw.io/26.2.15 Chrome/134.0.6998.205 Electron/35.2.1 Safari/537.36" version="26.2.15">
  <diagram name="페이지-1" id="bp0v0l6kumjUbHQFv2-J">
    <mxGraphModel dx="872" dy="660" grid="1" gridSize="10" guides="1" tooltips="1" connect="1" arrows="1" fold="1" page="1" pageScale="1" pageWidth="827" pageHeight="1169" math="0" shadow="0">
      <root>
        <mxCell id="0" />
        <mxCell id="1" parent="0" />
        <mxCell id="HPaWeAaqy89-3lbvzXhI-8" value="" style="edgeStyle=orthogonalEdgeStyle;rounded=0;orthogonalLoop=1;jettySize=auto;html=1;" edge="1" parent="1" source="HPaWeAaqy89-3lbvzXhI-7" target="HPaWeAaqy89-3lbvzXhI-6">
          <mxGeometry relative="1" as="geometry" />
        </mxCell>
        <mxCell id="HPaWeAaqy89-3lbvzXhI-9" value="" style="edgeStyle=orthogonalEdgeStyle;rounded=0;orthogonalLoop=1;jettySize=auto;html=1;" edge="1" source="HPaWeAaqy89-3lbvzXhI-10" target="HPaWeAaqy89-3lbvzXhI-11" parent="1">
          <mxGeometry relative="1" as="geometry" />
        </mxCell>
        <mxCell id="HPaWeAaqy89-3lbvzXhI-12" value="" style="group" vertex="1" connectable="0" parent="1">
          <mxGeometry x="510" y="390" width="120" height="130" as="geometry" />
        </mxCell>
        <mxCell id="HPaWeAaqy89-3lbvzXhI-4" value="IP" style="rounded=0;whiteSpace=wrap;html=1;fontSize=16;fontStyle=1;fillColor=#f8cecc;strokeColor=#b85450;" vertex="1" parent="HPaWeAaqy89-3lbvzXhI-12">
          <mxGeometry width="120" height="130" as="geometry" />
        </mxCell>
        <mxCell id="HPaWeAaqy89-3lbvzXhI-6" value="ODATA" style="text;html=1;align=center;verticalAlign=middle;whiteSpace=wrap;rounded=0;fontSize=8;" vertex="1" parent="HPaWeAaqy89-3lbvzXhI-12">
          <mxGeometry y="10" width="30" height="30" as="geometry" />
        </mxCell>
        <mxCell id="HPaWeAaqy89-3lbvzXhI-10" value="IDATA" style="text;html=1;align=center;verticalAlign=middle;whiteSpace=wrap;rounded=0;fontSize=8;" vertex="1" parent="HPaWeAaqy89-3lbvzXhI-12">
          <mxGeometry y="80" width="30" height="30" as="geometry" />
        </mxCell>
        <mxCell id="HPaWeAaqy89-3lbvzXhI-13" value="" style="group" vertex="1" connectable="0" parent="1">
          <mxGeometry x="360" y="390" width="120" height="130" as="geometry" />
        </mxCell>
        <mxCell id="HPaWeAaqy89-3lbvzXhI-3" value="BUFFER" style="rounded=0;whiteSpace=wrap;html=1;fontSize=16;fontStyle=1;fillColor=#d5e8d4;strokeColor=#82b366;" vertex="1" parent="HPaWeAaqy89-3lbvzXhI-13">
          <mxGeometry width="120" height="130" as="geometry" />
        </mxCell>
        <mxCell id="HPaWeAaqy89-3lbvzXhI-7" value="ODATA" style="text;html=1;align=center;verticalAlign=middle;whiteSpace=wrap;rounded=0;fontSize=8;" vertex="1" parent="HPaWeAaqy89-3lbvzXhI-13">
          <mxGeometry x="90" y="10" width="30" height="30" as="geometry" />
        </mxCell>
        <mxCell id="HPaWeAaqy89-3lbvzXhI-11" value="IDATA" style="text;html=1;align=center;verticalAlign=middle;whiteSpace=wrap;rounded=0;fontSize=8;" vertex="1" parent="HPaWeAaqy89-3lbvzXhI-13">
          <mxGeometry x="90" y="80" width="30" height="30" as="geometry" />
        </mxCell>
        <mxCell id="HPaWeAaqy89-3lbvzXhI-16" value="" style="rounded=0;whiteSpace=wrap;html=1;fillColor=#e1d5e7;strokeColor=#9673a6;" vertex="1" parent="1">
          <mxGeometry x="200" y="160" width="120" height="370" as="geometry" />
        </mxCell>
        <mxCell id="HPaWeAaqy89-3lbvzXhI-21" value="APB Slave" style="swimlane;whiteSpace=wrap;html=1;fillColor=#ffe6cc;strokeColor=#d79b00;" vertex="1" parent="1">
          <mxGeometry x="340" y="160" width="300" height="370" as="geometry" />
        </mxCell>
        <mxCell id="HPaWeAaqy89-3lbvzXhI-2" value="INTERFACE" style="rounded=0;whiteSpace=wrap;html=1;fontSize=16;fontStyle=1;fillColor=#dae8fc;strokeColor=#6c8ebf;" vertex="1" parent="HPaWeAaqy89-3lbvzXhI-21">
          <mxGeometry x="100" y="80" width="120" height="130" as="geometry" />
        </mxCell>
        <mxCell id="HPaWeAaqy89-3lbvzXhI-28" value="&amp;nbsp;" style="text;html=1;align=center;verticalAlign=middle;whiteSpace=wrap;rounded=0;" vertex="1" parent="HPaWeAaqy89-3lbvzXhI-21">
          <mxGeometry x="100" y="110" width="60" height="30" as="geometry" />
        </mxCell>
        <mxCell id="HPaWeAaqy89-3lbvzXhI-30" value="&amp;nbsp;" style="text;html=1;align=center;verticalAlign=middle;whiteSpace=wrap;rounded=0;" vertex="1" parent="HPaWeAaqy89-3lbvzXhI-21">
          <mxGeometry x="100" y="80" width="60" height="30" as="geometry" />
        </mxCell>
        <mxCell id="HPaWeAaqy89-3lbvzXhI-23" style="edgeStyle=orthogonalEdgeStyle;rounded=0;orthogonalLoop=1;jettySize=auto;html=1;entryX=0;entryY=0.75;entryDx=0;entryDy=0;" edge="1" parent="1" source="HPaWeAaqy89-3lbvzXhI-3" target="HPaWeAaqy89-3lbvzXhI-2">
          <mxGeometry relative="1" as="geometry" />
        </mxCell>
        <mxCell id="HPaWeAaqy89-3lbvzXhI-24" style="edgeStyle=orthogonalEdgeStyle;rounded=0;orthogonalLoop=1;jettySize=auto;html=1;entryX=0.25;entryY=0;entryDx=0;entryDy=0;" edge="1" parent="1" source="HPaWeAaqy89-3lbvzXhI-2" target="HPaWeAaqy89-3lbvzXhI-3">
          <mxGeometry relative="1" as="geometry">
            <Array as="points">
              <mxPoint x="390" y="300" />
            </Array>
          </mxGeometry>
        </mxCell>
        <mxCell id="HPaWeAaqy89-3lbvzXhI-26" value="RDATA" style="text;html=1;align=center;verticalAlign=middle;whiteSpace=wrap;rounded=0;" vertex="1" parent="1">
          <mxGeometry x="270" y="270" width="50" height="30" as="geometry" />
        </mxCell>
        <mxCell id="HPaWeAaqy89-3lbvzXhI-27" value="MASTER" style="rounded=0;whiteSpace=wrap;html=1;" vertex="1" parent="1">
          <mxGeometry x="200" y="140" width="50" height="20" as="geometry" />
        </mxCell>
        <mxCell id="HPaWeAaqy89-3lbvzXhI-29" value="" style="edgeStyle=orthogonalEdgeStyle;rounded=0;orthogonalLoop=1;jettySize=auto;html=1;" edge="1" parent="1" source="HPaWeAaqy89-3lbvzXhI-28" target="HPaWeAaqy89-3lbvzXhI-26">
          <mxGeometry relative="1" as="geometry" />
        </mxCell>
        <mxCell id="HPaWeAaqy89-3lbvzXhI-32" value="SLAVE&lt;div&gt;CTRL&lt;/div&gt;&lt;div&gt;SIG&lt;/div&gt;" style="text;html=1;align=center;verticalAlign=middle;whiteSpace=wrap;rounded=0;" vertex="1" parent="1">
          <mxGeometry x="270" y="200" width="50" height="30" as="geometry" />
        </mxCell>
        <mxCell id="HPaWeAaqy89-3lbvzXhI-31" value="" style="edgeStyle=orthogonalEdgeStyle;rounded=0;orthogonalLoop=1;jettySize=auto;html=1;entryX=0.5;entryY=0;entryDx=0;entryDy=0;" edge="1" parent="1" source="HPaWeAaqy89-3lbvzXhI-32" target="HPaWeAaqy89-3lbvzXhI-30">
          <mxGeometry relative="1" as="geometry" />
        </mxCell>
      </root>
    </mxGraphModel>
  </diagram>
</mxfile>
